MSHX1
GROUPS 10
LABEL Arm
MATERIAL 1
TEXTURE 0
FLAG 0
GEOM 550 1076
2.6596 1.6979 0.7622 -0.6214 0.6574 -0.4262
2.6517 1.6805 0.8162 -0.6631 0.4356 0.6087
2.7683 1.8391 0.8639 -0.7244 0.3120 0.6148
2.5903 1.8105 0.5287 -0.4333 0.3125 -0.8453
2.5672 1.7903 0.5638 -0.9941 0.1068 -0.0170
2.5696 1.8411 0.5791 -0.9896 0.1429 -0.0179
2.6069 1.5611 0.5133 0.9612 -0.2299 -0.1524
2.6239 1.6144 0.5237 0.9334 -0.3386 0.1192
2.5776 1.6037 0.5596 0.5303 0.0667 0.8452
2.6369 1.6538 0.5319 0.9654 -0.2267 0.1288
2.5971 1.6504 0.5694 0.2397 -0.2676 0.9332
2.5880 1.6171 0.5628 0.2623 -0.3342 0.9053
2.6633 1.5021 0.8798 0.7003 -0.5858 -0.4079
2.7669 1.5779 0.9085 0.6758 -0.5405 -0.5012
2.7560 1.5666 0.9660 0.5441 -0.7046 0.4555
2.6513 1.4935 0.9448 0.4986 -0.7063 0.5026
2.6285 1.4683 0.9374 0.4501 -0.7794 0.4357
2.6280 1.4931 0.8128 0.8671 -0.4970 0.0345
2.8423 1.8725 0.8922 0.1192 -0.2343 0.9648
2.8849 1.9182 0.8809 0.8095 -0.4205 0.4097
2.8674 1.9357 0.9048 0.0729 -0.0444 0.9963
2.7838 1.6892 0.8199 0.7506 -0.5317 0.3924
2.7518 1.7022 0.8564 0.1253 -0.3019 0.9451
2.7006 1.6326 0.8403 0.0954 -0.2395 0.9662
2.6766 1.8376 0.6835 -0.8970 0.2808 0.3413
2.7482 1.8698 0.7400 0.0514 -0.1292 0.9903
2.7226 1.9525 0.7063 -0.8614 0.3770 0.3403
2.9096 1.9797 0.8613 0.8365 0.5152 -0.1866
2.9060 1.9614 0.8604 0.9428 -0.2452 -0.2257
2.8773 1.9552 0.8212 0.3580 0.3508 -0.8653
2.1865 1.3802 0.4336 -0.3226 0.2746 -0.9058
2.1424 1.4216 0.5609 -0.6346 0.7708 -0.0565
2.2259 1.4722 0.4662 -0.5587 0.6922 -0.4568
1.2535 0.9341 0.0296 0.2398 0.1189 -0.9635
1.1686 1.1143 0.1648 -0.2385 0.8265 -0.5099
2.1294 1.3062 0.4376 0.0738 0.1443 -0.9868
1.1529 1.1336 0.3222 -0.4105 0.9001 0.1457
2.1058 1.3506 0.4758 -0.4167 0.7671 -0.4878
2.0674 1.3366 0.5926 -0.5620 0.8112 0.1615
1.2686 0.7395 0.1654 0.5768 -0.7107 -0.4028
2.2106 1.2042 0.4982 0.4607 -0.5976 -0.6562
2.2096 1.1631 0.5760 0.4875 -0.8531 -0.1862
1.2121 0.7274 0.3530 0.3690 -0.7673 0.5245
2.0871 1.2139 0.7358 -0.4425 -0.4460 0.7780
1.1722 0.8374 0.4300 -0.0334 -0.3604 0.9322
1.1488 1.0728 0.4243 -0.4212 0.5474 0.7231
2.0562 1.2830 0.6850 -0.6761 0.5172 0.5248
2.2311 1.3215 0.4453 0.2011 -0.3204 -0.9257
2.7072 1.6627 0.7234 0.1968 0.1483 -0.9692
2.7907 1.6953 0.7868 0.8551 -0.3614 -0.3717
2.7430 1.6196 0.7602 0.8083 -0.4400 -0.3913
2.2767 1.4909 0.5695 -0.4173 0.8738 0.2499
2.2183 1.4398 0.6647 -0.3856 0.9219 0.0372
2.3510 1.4778 0.6525 -0.3941 0.9034 0.1688
2.4478 1.5311 0.6770 -0.5083 0.8462 0.1601
2.3245 1.4788 0.7563 -0.3088 0.9445 -0.1122
2.4414 1.5238 0.8004 -0.4211 0.8993 0.1177
2.3846 1.5498 0.5485 -0.4525 0.8377 0.3058
2.2881 1.4867 0.8636 -0.1631 0.9844 -0.0653
2.3643 1.4625 0.9302 0.4231 0.7613 0.4914
2.1210 1.3830 0.6689 -0.7089 0.7019 0.0692
2.1747 1.4425 0.7643 -0.5276 0.8430 -0.1051
2.5040 1.6187 0.5029 -0.4188 0.8964 -0.1451
2.4676 1.5964 0.5547 -0.3951 0.8843 0.2488
2.5221 1.6083 0.5667 -0.3062 0.9141 0.2659
2.5253 1.6382 0.5185 -0.7271 0.6857 0.0338
2.5394 1.6257 0.5531 -0.3380 0.5814 0.7401
2.3367 1.5537 0.4501 -0.4230 0.7421 -0.5200
2.3904 1.5136 0.4292 0.0638 0.0705 -0.9955
2.4417 1.6004 0.4724 -0.2996 0.8782 -0.3728
2.4738 1.5662 0.4436 0.0681 0.2267 -0.9716
2.5182 1.5955 0.4613 -0.0166 0.4560 -0.8898
2.5366 1.6214 0.4709 -0.2788 0.5339 -0.7982
2.3076 1.5078 0.9753 0.0756 0.9329 -0.3522
2.3483 1.4883 0.9782 0.7323 0.5431 -0.4107
2.5209 1.5809 0.6768 -0.5336 0.8306 0.1592
2.5605 1.6080 0.6804 -0.4815 0.8466 0.2267
2.5035 1.5214 0.9240 -0.4359 0.6555 0.6167
2.5179 1.5718 0.8238 -0.4795 0.8541 0.2014
2.5573 1.5901 0.8213 -0.3564 0.8733 0.3321
2.5561 1.5445 0.9342 -0.4662 0.6717 0.5758
2.4985 1.4571 0.9459 -0.1374 -0.1372 0.9810
2.5591 1.5018 0.9645 -0.2091 -0.0184 0.9777
2.4287 1.4133 0.9333 0.1824 -0.2185 0.9586
2.4530 1.4519 0.4666 0.3961 -0.4273 -0.8127
2.5103 1.5013 0.4677 0.3385 -0.4526 -0.8250
2.5595 1.5337 0.4651 0.4754 -0.3537 -0.8056
2.6005 1.4462 0.7981 0.7920 -0.6086 0.0483
2.5611 1.4279 0.9162 0.4198 -0.7540 0.5052
2.5195 1.3636 0.7577 0.6225 -0.7823 0.0244
2.4686 1.3637 0.8905 0.3852 -0.7541 0.5319
2.5566 1.4586 0.5478 0.6576 -0.6256 -0.4198
2.4902 1.3987 0.5428 0.5970 -0.6530 -0.4661
2.5118 1.3760 0.6514 0.6479 -0.7375 -0.1904
2.6026 1.4614 0.6669 0.8030 -0.5762 -0.1523
2.6340 1.5225 0.6730 0.8838 -0.4355 -0.1708
2.3539 1.4320 0.9997 0.8729 -0.4691 0.1342
2.3824 1.4635 1.0281 0.8552 -0.4743 -0.2089
2.1167 1.3683 0.8125 -0.9381 0.3127 0.1491
2.2064 1.4869 0.9775 -0.6087 0.7788 0.1517
2.1469 1.4397 0.9178 -0.8372 0.5236 0.1577
2.5801 1.5763 0.8696 -0.1684 0.9790 0.1147
2.5842 1.5729 0.9319 -0.5672 0.7127 0.4127
2.3395 1.3880 0.9681 0.5720 -0.5630 0.5966
2.6237 1.5337 0.9772 -0.1598 -0.0669 0.9849
2.5792 1.6498 0.6075 -0.6288 0.6350 -0.4488
2.5783 1.6488 0.6597 -0.7172 0.4995 0.4859
2.5726 1.5801 0.4636 0.4201 -0.0389 -0.9066
2.2914 1.2071 0.7075 0.4522 -0.8709 0.1923
2.2109 1.2298 0.8148 0.0332 -0.8501 0.5255
2.2885 1.2479 0.5102 0.4822 -0.6280 -0.6108
2.3055 1.2173 0.5940 0.5633 -0.8041 -0.1901
2.6940 1.5435 0.7418 0.7824 -0.5361 -0.3170
2.3316 1.3524 0.9337 0.3189 -0.7346 0.5988
2.5687 1.5932 0.5773 0.5623 0.7069 -0.4291
2.6320 1.5772 0.6856 0.9708 0.2282 0.0738
2.6516 1.6024 0.6897 0.3369 -0.2776 0.8997
2.6010 1.6414 0.7423 -0.4841 0.8072 -0.3376
2.6055 1.5773 0.8300 0.3304 0.6087 0.7213
2.6594 1.5810 0.8317 0.0864 -0.3234 0.9423
2.6130 1.6407 0.8096 -0.5431 0.5685 0.6180
2.6766 1.5409 0.7950 0.6345 -0.5630 0.5295
2.6315 1.5624 0.8542 0.4810 0.4913 -0.7261
2.6688 1.5810 0.6434 0.8764 -0.4713 0.0985
2.6568 1.6002 0.7104 0.3247 0.2804 -0.9033
2.6043 1.5216 0.5463 0.8702 -0.3175 -0.3769
2.5920 1.6257 0.5927 -0.0985 0.3336 -0.9375
2.6514 1.5800 0.5833 0.6563 -0.1784 -0.7331
2.6014 1.9140 0.5761 -0.4141 0.8512 -0.3224
2.5847 1.8988 0.5955 -0.7714 0.6284 0.1003
2.6092 1.8958 0.6160 -0.0702 0.5192 0.8518
2.6232 1.9161 0.5730 0.4327 0.8043 -0.4072
2.6306 1.9002 0.6105 0.6523 0.5156 0.5556
2.7902 2.0133 0.6978 0.3190 0.9006 -0.2952
2.7580 1.9954 0.7206 -0.6169 0.6459 0.4497
2.7881 2.0012 0.7404 0.2260 0.5971 0.7697
2.8059 1.9766 0.7243 0.9104 -0.0155 0.4133
2.8078 1.9799 0.6961 0.9335 0.1041 -0.3432
2.8807 1.9825 0.8854 -0.0622 0.8232 0.5643
2.9033 1.9689 0.8937 0.6465 0.3109 0.6967
2.9017 1.9551 0.8902 0.8222 -0.3288 0.4646
2.8716 1.8526 0.9672 -0.1391 0.8372 -0.5289
2.8564 1.8542 1.0026 -0.3609 0.8541 0.3745
2.8831 1.8554 1.0061 0.4614 0.6991 0.5461
2.8885 1.8235 1.0035 0.8811 -0.1086 0.4603
2.8931 1.8258 0.9733 0.9655 -0.2355 -0.1111
2.1523 1.3346 0.9301 -0.6712 -0.4349 0.6003
2.5500 1.6423 0.5535 -0.5814 0.1856 0.7922
2.5648 1.6727 0.5629 -0.6398 -0.0456 0.7672
2.6102 1.7195 0.5885 0.3187 -0.2748 0.9071
2.6205 1.7798 0.5985 0.4401 -0.2167 0.8714
2.5833 1.7804 0.5948 -0.5605 -0.1284 0.8182
2.6160 1.8499 0.6178 0.3134 -0.1292 0.9408
2.5869 1.8363 0.6100 -0.5573 -0.1385 0.8187
2.5866 1.8890 0.6126 -0.6122 0.3424 0.7127
2.5409 1.6595 0.5246 -0.8879 0.4599 0.0129
2.5512 1.6896 0.5295 -0.9628 0.2570 -0.0838
2.5667 1.6558 0.4801 -0.2920 0.3783 -0.8784
2.4261 1.6114 1.2288 0.3098 0.0991 0.9456
2.4485 1.5939 1.2220 0.5428 -0.0982 0.8341
2.4523 1.6134 1.1793 0.7122 0.7010 -0.0361
2.4274 1.6306 1.1771 0.3589 0.9201 -0.1566
2.5959 1.8568 0.5459 -0.3677 0.4163 -0.8315
2.6402 1.7195 0.5507 0.9886 -0.0775 0.1293
2.6416 1.7847 0.5698 0.9928 -0.0378 0.1135
2.6353 1.8535 0.5929 0.9771 0.0096 0.2124
2.5801 1.6992 0.4914 -0.3397 0.3599 -0.8690
2.5851 1.7434 0.5087 -0.3856 0.3440 -0.8562
2.6203 1.7419 0.5152 0.6130 0.2250 -0.7574
2.6237 1.8010 0.5303 0.6069 0.2197 -0.7638
2.6253 1.8613 0.5537 0.6623 0.3109 -0.6817
2.6740 1.6601 0.7030 0.1162 -0.2384 0.9642
2.6144 1.6924 0.6665 -0.7085 0.3980 0.5828
2.7032 1.7190 0.7117 0.1589 -0.2037 0.9661
2.6409 1.7412 0.6686 -0.8301 0.3222 0.4552
2.7255 1.8082 0.7256 -0.0246 -0.1872 0.9820
2.7610 1.9362 0.7449 -0.0605 -0.0303 0.9977
2.6114 1.6949 0.6168 -0.7192 0.5833 -0.3775
2.6430 1.7424 0.6244 -0.7734 0.4757 -0.4190
2.6876 1.8445 0.6417 -0.6809 0.4362 -0.5883
2.7579 1.9998 0.6949 -0.5241 0.7818 -0.3379
2.6383 1.6871 0.5944 -0.1932 0.2646 -0.9448
2.6735 1.7350 0.5980 -0.0765 0.2334 -0.9694
2.7242 1.8440 0.6294 0.1024 0.2428 -0.9647
2.7136 1.9101 0.6612 -0.6692 0.4511 -0.5905
2.7468 1.9072 0.6465 0.1005 0.2631 -0.9595
2.7266 1.9543 0.6817 -0.7343 0.4995 -0.4597
2.7670 1.9574 0.6609 0.1338 0.3338 -0.9331
2.6931 1.6685 0.6039 0.6631 -0.1893 -0.7242
2.7201 1.7179 0.6166 0.7560 -0.1741 -0.6310
2.7576 1.8335 0.6468 0.7510 -0.0898 -0.6542
2.7811 1.8941 0.6694 0.8706 -0.0804 -0.4853
2.7953 1.9529 0.6863 0.8842 -0.1596 -0.4390
2.7793 1.8766 0.7088 0.9063 -0.2062 0.3689
2.7924 1.9375 0.7196 0.8659 -0.3016 0.3991
2.6048 1.6332 0.4823 0.5733 -0.0165 -0.8192
2.6204 1.6843 0.4934 0.6182 0.1390 -0.7736
2.7303 1.7101 0.6739 0.8959 -0.3916 0.2097
2.7735 1.8227 0.6947 0.9158 -0.3337 0.2235
2.8839 1.9888 0.8593 0.0171 0.9772 -0.2117
2.7818 1.8646 0.8028 -0.6419 0.5638 -0.5197
2.8129 1.9235 0.8794 -0.7586 0.3572 0.5449
2.8442 1.9690 0.8442 -0.5319 0.7713 -0.3497
2.8475 1.9683 0.8856 -0.5400 0.6484 0.5367
2.8876 1.9212 0.8451 0.9134 -0.2708 -0.3040
2.8705 1.8679 0.8300 0.9027 -0.2725 -0.3329
2.8643 1.8592 0.8685 0.7974 -0.4253 0.4280
2.6567 1.6095 0.8926 -0.3739 0.7883 -0.4887
2.6723 1.5852 0.8683 0.1138 0.2411 -0.9638
2.6963 1.6365 0.8988 -0.4545 0.7259 -0.5162
2.7636 1.6896 0.9095 -0.3847 0.6175 -0.6861
2.7195 1.6192 0.8756 0.0638 0.1794 -0.9817
2.8068 1.7497 0.9331 -0.4954 0.4956 -0.7134
2.8237 1.7265 0.9196 0.3132 0.1512 -0.9376
2.8323 1.8250 0.9563 -0.5285 0.6033 -0.5973
2.8648 1.8013 0.9396 0.3785 0.1279 -0.9167
2.8990 1.8520 0.9688 0.7873 0.5278 -0.3187
2.8773 1.7858 0.9623 0.9175 -0.2893 -0.2729
2.7846 1.6684 0.8973 0.3523 0.0866 -0.9319
2.8500 1.6937 0.9482 0.8772 -0.3287 -0.3500
2.8080 1.6293 0.9377 0.8219 -0.4863 -0.2967
2.6352 1.6090 0.9405 -0.5975 0.7479 0.2892
2.6835 1.6419 0.9503 -0.6443 0.7229 0.2498
2.7486 1.7113 0.9808 -0.7932 0.5411 0.2794
2.7834 1.7638 0.9969 -0.8376 0.4409 0.3227
2.8207 1.8249 1.0023 -0.7162 0.5908 0.3715
2.7016 1.5954 0.9981 -0.1970 -0.0368 0.9797
2.7702 1.6570 1.0148 -0.1127 -0.1345 0.9845
2.8119 1.7247 1.0252 -0.0347 -0.0729 0.9967
2.8526 1.7995 1.0302 0.1294 0.0392 0.9908
2.7985 1.6221 0.9825 0.6245 -0.5946 0.5065
2.8430 1.6865 0.9934 0.7589 -0.4329 0.4864
2.8688 1.7795 1.0053 0.8136 -0.3492 0.4649
2.3953 1.5254 1.0539 0.6678 0.3010 -0.6808
2.4177 1.5080 1.0855 0.8361 -0.5162 -0.1858
2.4193 1.5450 1.0819 0.6738 0.2297 -0.7023
2.4363 1.5298 1.1052 0.8603 -0.4631 -0.2130
2.4542 1.5821 1.1327 0.7378 0.4108 -0.5356
2.4637 1.5640 1.1425 0.9462 -0.2901 -0.1437
2.4659 1.5918 1.1856 0.9795 0.0566 0.1934
2.4085 1.6233 1.1363 0.1882 0.8525 -0.4877
2.3742 1.5876 1.0820 0.0408 0.7576 -0.6514
2.3425 1.5468 1.0408 0.0111 0.8017 -0.5976
2.3720 1.6302 1.1680 -0.5888 0.7914 0.1645
2.4063 1.6392 1.2110 -0.5859 0.7489 0.3097
2.3396 1.6014 1.1417 -0.7490 0.6444 0.1538
2.3128 1.5661 1.1009 -0.7738 0.6335 0.0061
2.2751 1.5229 1.0491 -0.6879 0.7203 0.0890
2.3634 1.5534 1.1770 -0.4295 -0.2466 0.8687
2.4002 1.5874 1.2022 -0.4611 -0.2838 0.8408
2.3319 1.5224 1.1547 -0.5084 -0.2605 0.8208
2.2951 1.4857 1.1139 -0.6516 -0.2799 0.7050
2.2654 1.4616 1.0719 -0.6400 -0.2210 0.7359
2.1918 1.4201 1.0086 -0.6680 -0.1256 0.7335
2.4351 1.5541 1.1900 0.3204 -0.7320 0.6013
2.3828 1.4970 1.1338 0.3249 -0.7631 0.5587
2.3403 1.4564 1.0985 0.1760 -0.8202 0.5444
2.3069 1.4188 1.0471 0.1549 -0.7830 0.6025
2.2721 1.3754 0.9993 0.0501 -0.7424 0.6680
2.4080 1.5277 1.1582 0.2923 -0.7851 0.5460
2.1788 1.1473 0.6635 0.2676 -0.9158 0.2996
2.8178 1.9304 0.8253 -0.6428 0.5754 -0.5057
2.8530 1.9069 0.8040 0.3179 0.1806 -0.9308
2.5584 1.7365 0.5484 -0.9842 0.1732 -0.0364
2.5733 1.7263 0.5817 -0.6262 -0.1263 0.7694
2.2261 1.3052 0.9199 0.0206 -0.7882 0.6151
1.1662 0.9697 0.4526 -0.2605 0.0294 0.9650
1.0323 0.7841 -0.0166 0.1814 0.0681 -0.9810
0.8937 0.9271 0.1186 -0.4112 0.7431 -0.5279
0.8727 0.9403 0.2760 -0.5829 0.7984 0.1511
1.1096 0.6048 0.1192 0.6593 -0.6713 -0.3385
1.0600 0.5750 0.3068 0.5138 -0.6965 0.5009
0.9867 0.6662 0.3839 0.1265 -0.3808 0.9160
0.8884 0.8814 0.3781 -0.4666 0.4531 0.7596
0.9382 0.7894 0.4065 -0.1706 -0.0334 0.9848
0.9855 2.9861 0.7622 0.7803 -0.4577 -0.4262
0.9704 2.9745 0.8162 0.5736 -0.5482 0.6087
1.0987 3.1237 0.8639 0.4669 -0.6357 0.6148
1.1108 2.9438 0.5287 0.4019 -0.3519 -0.8453
1.0964 2.9168 0.5638 0.3277 -0.9446 -0.0170
1.1453 2.9306 0.5791 0.3617 -0.9321 -0.0179
0.8641 2.9039 0.5133 -0.4401 0.8849 -0.1524
0.9122 2.9325 0.5237 -0.5398 0.8333 0.1192
0.9122 2.8849 0.5596 -0.0543 0.5317 0.8452
0.9476 2.9540 0.5319 -0.4380 0.8897 0.1288
0.9533 2.9144 0.5694 -0.3147 0.1734 0.9332
0.9229 2.8981 0.5628 -0.3846 0.1805 0.9053
0.7939 2.9456 0.8798 -0.7283 0.5506 -0.4079
0.8445 3.0636 0.9085 -0.6786 0.5369 -0.5012
0.8359 3.0505 0.9660 -0.8089 0.3718 0.4555
0.7883 2.9320 0.9448 -0.8003 0.3270 0.5026
0.7688 2.9041 0.9374 -0.8607 0.2633 0.4357
0.7931 2.9092 0.8128 -0.6792 0.7331 0.0345
1.1146 3.2034 0.8922 -0.2551 0.0635 0.9648
1.1496 3.2551 0.8809 -0.5917 0.6942 0.4097
1.1705 3.2420 0.9048 -0.0597 0.0610 0.9963
0.9491 3.1051 0.8199 -0.6868 0.6118 0.3924
0.9690 3.0768 0.8564 -0.3224 0.0542 0.9451
0.9127 3.0113 0.8403 -0.2548 0.0391 0.9662
1.1178 3.0340 0.6835 0.4754 -0.8109 0.3413
1.1330 3.1110 0.7400 -0.1374 0.0210 0.9903
1.2195 3.1047 0.7063 0.5611 -0.7546 0.3403
1.2039 3.2930 0.8613 0.3139 0.9309 -0.1866
1.1869 3.2853 0.8604 -0.4510 0.8635 -0.2257
1.1872 3.2561 0.8212 0.2613 0.4277 -0.8653
0.7824 2.4536 0.4336 0.3402 -0.2526 -0.9058
0.8326 2.4199 0.5609 0.8938 -0.4450 -0.0565
0.8631 2.5127 0.4662 0.8001 -0.3888 -0.4568
0.5575 1.4442 0.0296 0.0620 0.2604 -0.9635
0.7522 1.4020 0.1648 0.8590 -0.0465 -0.5099
0.7231 2.3813 0.4376 0.1241 0.1044 -0.9868
0.7745 1.3910 0.3222 0.9694 -0.1976 0.1457
0.7716 2.3683 0.4758 0.8411 -0.2336 -0.4878
0.7667 2.3278 0.5926 0.9168 -0.3652 0.1615
0.3645 1.4151 0.1654 -0.8222 0.4022 -0.4028
0.6054 2.4375 0.4982 -0.6859 0.3145 -0.6562
0.5656 2.4273 0.5760 -0.9408 0.2832 -0.1862
0.3654 1.3574 0.3530 -0.8306 0.1870 0.5245
0.6427 2.3194 0.7358 -0.3351 -0.5314 0.7780
0.4815 1.3433 0.4300 -0.3437 -0.1136 0.9322
0.7162 1.3734 0.4243 0.6281 -0.2874 0.7231
0.7169 2.3048 0.6850 0.6560 -0.5425 0.5248
0.7152 2.4838 0.4453 -0.3574 0.1239 -0.9257
0.9406 3.0245 0.7234 0.1003 0.2251 -0.9692
0.9536 3.1132 0.7868 -0.5445 0.7519 -0.3717
0.8904 3.0497 0.7602 -0.6105 0.6886 -0.3913
0.8699 2.5664 0.5695 0.9452 -0.2101 0.2499
0.8333 2.4980 0.6647 0.9850 -0.1684 0.0372
0.8405 2.6359 0.6525 0.9689 -0.1809 0.1688
0.8706 2.7422 0.6770 0.9388 -0.3050 0.1601
0.8474 2.6103 0.7563 0.9897 -0.0885 -0.1122
0.8650 2.7342 0.8004 0.9710 -0.2081 0.1177
0.9030 2.6848 0.5485 0.9180 -0.2525 0.3058
0.8633 2.5766 0.8636 0.9959 0.0624 -0.0653
0.8226 2.6453 0.9302 0.6466 0.5835 0.4914
0.7998 2.3904 0.6689 0.8433 -0.5329 0.0692
0.8457 2.4561 0.7643 0.9400 -0.3245 -0.1051
0.9433 2.8166 0.5029 0.9676 -0.2065 -0.1451
0.9299 2.7761 0.5547 0.9505 -0.1862 0.2488
0.9291 2.8320 0.5667 0.9595 -0.0928 0.2659
0.9575 2.8418 0.5185 0.8316 -0.5543 0.0338
0.9422 2.8526 0.5531 0.6425 -0.1986 0.7401
0.9176 2.6389 0.4501 0.8182 -0.2453 -0.5200
0.8665 2.6823 0.4292 0.0543 0.0780 -0.9955
0.9395 2.7518 0.4724 0.9231 -0.0945 -0.3728
0.8990 2.7754 0.4436 0.2056 0.1173 -0.9716
0.9175 2.8252 0.4613 0.4481 0.0864 -0.8898
0.9387 2.8489 0.4709 0.5829 -0.1516 -0.7982
0.8795 2.6003 0.9753 0.8920 0.2835 -0.3522
0.8513 2.6355 0.9782 0.3645 0.8357 -0.4107
0.9027 2.8246 0.6768 0.9293 -0.3331 0.1592
0.9202 2.8693 0.6804 0.9332 -0.2788 0.2267
0.8486 2.7943 0.9240 0.7367 -0.2774 0.6167
0.8945 2.8196 0.8238 0.9401 -0.2752 0.2014
0.9035 2.8622 0.8213 0.9311 -0.1509 0.3321
0.8593 2.8507 0.9342 0.7593 -0.3032 0.5758
0.7871 2.7749 0.9459 -0.1028 -0.1647 0.9810
0.8170 2.8440 0.9645 0.0291 -0.2079 0.9777
0.7601 2.6970 0.9333 -0.2540 0.1286 0.9586
0.7922 2.7294 0.4666 -0.5054 0.2899 -0.8127
0.8275 2.7964 0.4677 -0.5171 0.2280 -0.8250
0.8480 2.8516 0.4651 -0.4515 0.3837 -0.8056
0.7535 2.8718 0.7981 -0.7711 0.6349 0.0483
0.7446 2.8293 0.9162 -0.8291 0.2395 0.5052
0.6913 2.7744 0.7577 -0.9022 0.4306 0.0244
0.7028 2.7248 0.8905 -0.8214 0.2057 0.5319
0.7755 2.8319 0.5478 -0.7574 0.5001 -0.4198
0.7321 2.7537 0.5428 -0.7705 0.4348 -0.4661
0.7051 2.7697 0.6514 -0.8643 0.4655 -0.1904
0.7679 2.8773 0.6669 -0.7420 0.6529 -0.1523
0.8204 2.9216 0.6730 -0.6231 0.7633 -0.1708
0.7951 2.6284 0.9997 -0.6533 0.7451 0.1342
0.8195 2.6633 1.0281 -0.6545 0.7266 -0.2089
0.7864 2.3829 0.8125 0.5156 -0.8437 0.1491
0.8819 2.4970 0.9775 0.8957 -0.4179 0.1517
0.8493 2.4284 0.9178 0.6985 -0.6981 0.1577
0.8849 2.8812 0.8696 0.9918 0.0561 0.1147
0.8807 2.8844 0.9319 0.8220 -0.3924 0.4127
0.7556 2.6045 0.9681 -0.6772 0.4307 0.5966
0.8336 2.9142 0.9772 -0.0292 -0.1707 0.9849
0.9568 2.8968 0.6075 0.7601 -0.4699 -0.4488
0.9560 2.8958 0.6597 0.6480 -0.5866 0.4859
0.8903 2.8748 0.4636 -0.1324 0.4006 -0.9066
0.5901 2.5169 0.7075 -0.9503 0.2448 0.1923
0.6303 2.4435 0.8148 -0.8358 -0.1588 0.5255
0.6305 2.5232 0.5102 -0.7204 0.3286 -0.6108
0.5969 2.5329 0.5940 -0.9102 0.3680 -0.1901
0.8273 2.9848 0.7418 -0.6983 0.6418 -0.3170
0.7227 2.5888 0.9337 -0.7875 0.1455 0.5988
0.9040 2.8739 0.5773 0.5623 0.7069 -0.4291
0.8741 2.9320 0.6856 0.0041 0.9973 0.0738
0.8943 2.9567 0.6897 -0.3462 0.2659 0.8997
0.9437 2.9163 0.7423 0.8954 -0.2902 -0.3377
0.8802 2.9062 0.8300 0.5188 0.4588 0.7213
0.8717 2.9595 0.8317 -0.3345 0.0114 0.9423
0.9402 2.9277 0.8096 0.6760 -0.4014 0.6180
0.8287 2.9673 0.7950 -0.6913 0.4917 0.5295
0.8598 2.9282 0.8542 0.3706 0.5791 -0.7261
0.8695 2.9687 0.6434 -0.6563 0.7480 0.0985
0.8909 2.9613 0.7104 0.2002 0.3794 -0.9033
0.8262 2.8925 0.5463 -0.5050 0.7765 -0.3769
0.9303 2.9039 0.5927 0.3472 -0.0210 -0.9375
0.8725 2.9516 0.5833 -0.3214 0.5994 -0.7331
1.2092 2.9779 0.5761 0.9225 -0.2121 -0.3224
1.1982 2.9582 0.5955 0.7857 -0.6104 0.1003
1.1897 2.9814 0.6160 0.5217 0.0483 0.8518
1.2063 2.9997 0.5730 0.6864 0.6025 -0.4072
1.1891 3.0033 0.6105 0.3557 0.7515 0.5556
1.2635 3.1842 0.6978 0.8058 0.5133 -0.2952
1.2533 3.1488 0.7206 0.7681 -0.4558 0.4497
1.2522 3.1795 0.7404 0.5310 0.3545 0.7697
1.2241 3.1913 0.7243 -0.2198 0.8836 0.4133
1.2270 3.1939 0.6961 -0.1085 0.9330 -0.3432
1.2132 3.2654 0.8854 0.8161 0.1246 0.5643
1.1948 3.2844 0.8937 0.1576 0.6999 0.6967
1.1817 3.2798 0.8902 -0.5053 0.7272 0.4646
1.0886 3.2274 0.9672 0.8471 0.0527 -0.5289
1.0935 3.2129 1.0026 0.9134 -0.1596 0.3745
1.0887 3.2392 1.0061 0.5775 0.6068 0.5461
1.0564 3.2374 1.0035 -0.3040 0.8341 0.4603
1.0577 3.2423 0.9733 -0.4466 0.8878 -0.1111
0.7456 2.4100 0.9301 -0.2728 -0.7518 0.6003
0.9560 2.8668 0.5535 0.3116 -0.5248 0.7922
0.9823 2.8880 0.5629 0.0994 -0.6337 0.7672
1.0177 2.9428 0.5885 -0.3394 0.2488 0.9071
1.0741 2.9663 0.5985 -0.3101 0.3801 0.8714
1.0831 2.9302 0.5948 0.0010 -0.5750 0.8182
1.1435 2.9778 0.6178 -0.1964 0.2764 0.9408
1.1367 2.9463 0.6100 -0.0097 -0.5742 0.8187
1.1881 2.9579 0.6126 0.4713 -0.5196 0.7127
0.9748 2.8617 0.5246 0.6478 -0.7617 0.0129
1.0018 2.8785 0.5295 0.4669 -0.8803 -0.0838
0.9654 2.8861 0.4801 0.4343 -0.1994 -0.8784
0.9537 2.7391 1.2288 0.0269 0.3242 0.9456
0.9317 2.7570 1.2220 -0.2177 0.5068 0.8341
0.9498 2.7650 1.1793 0.5229 0.8516 -0.0361
0.9722 2.7446 1.1771 0.8158 0.5567 -0.1566
1.1547 2.9598 0.5459 0.4884 -0.2647 -0.8315
1.0110 2.9720 0.5507 -0.2978 0.9458 0.1293
1.0741 2.9880 0.5698 -0.2600 0.9589 0.1135
1.1426 2.9974 0.5929 -0.2103 0.9543 0.2124
1.0047 2.9088 0.4914 0.4271 -0.2501 -0.8690
1.0466 2.9237 0.5087 0.4219 -0.2983 -0.8562
1.0373 2.9577 0.5152 0.0814 0.6479 -0.7574
1.0940 2.9743 0.5303 0.0776 0.6408 -0.7638
1.1525 2.9893 0.5537 0.1540 0.7152 -0.6817
0.9455 2.9915 0.7030 -0.2585 0.0596 0.9642
0.9904 2.9408 0.6665 0.5471 -0.6008 0.5828
0.9963 3.0332 0.7117 -0.2342 0.1091 0.9661
1.0319 2.9776 0.6686 0.5006 -0.7364 0.4552
1.0782 3.0751 0.7256 -0.1769 -0.0660 0.9820
1.1949 3.1384 0.7449 -0.0159 -0.0658 0.9977
0.9935 2.9384 0.6168 0.7301 -0.5697 -0.3775
1.0326 2.9799 0.6244 0.6375 -0.6466 -0.4190
1.1221 3.0463 0.6417 0.5781 -0.5654 -0.5883
1.2576 3.1497 0.6949 0.8796 -0.3349 -0.3379
0.9798 2.9629 0.5944 0.3013 -0.1287 -0.9448
1.0186 3.0080 0.5980 0.2446 -0.0221 -0.9694
1.1134 3.0818 0.6294 0.2135 0.1544 -0.9647
1.1801 3.0864 0.6612 0.5900 -0.5506 -0.5905
1.1699 3.1181 0.6465 0.2338 0.1571 -0.9595
1.2203 3.1090 0.6817 0.6518 -0.6032 -0.4597
1.2142 3.1490 0.6609 0.2952 0.2055 -0.9331
0.9494 3.0121 0.6039 -0.3336 0.6036 -0.7242
0.9915 3.0495 0.6166 -0.3397 0.6975 -0.6310
1.0957 3.1120 0.6468 -0.2563 0.7116 -0.6542
1.1494 3.1485 0.6694 -0.2742 0.8302 -0.4853
1.2034 3.1756 0.6863 -0.3543 0.8257 -0.4390
1.1327 3.1428 0.7088 -0.4047 0.8367 0.3689
1.1892 3.1693 0.7196 -0.4886 0.7759 0.3991
0.9348 2.9181 0.4823 -0.1450 0.5549 -0.8192
0.9811 2.9447 0.4934 -0.0036 0.6337 -0.7736
0.9815 3.0576 0.6739 -0.5831 0.7849 0.2097
1.0816 3.1251 0.6947 -0.5311 0.8173 0.2235
1.2186 3.2700 0.8593 0.9483 0.2364 -0.2117
1.1205 3.1426 0.8028 0.6937 -0.4987 -0.5197
1.1708 3.1861 0.8794 0.5187 -0.6588 0.5449
1.2082 3.2268 0.8442 0.8711 -0.3448 -0.3497
1.2067 3.2299 0.8856 0.7532 -0.3803 0.5367
1.1519 3.2584 0.8451 -0.4693 0.8291 -0.3040
1.1037 3.2298 0.8300 -0.4685 0.8183 -0.3329
1.0966 3.2218 0.8685 -0.5937 0.6814 0.4280
0.9001 2.9633 0.8926 0.8522 -0.1871 -0.4887
0.8729 2.9731 0.8683 0.2093 0.1651 -0.9638
0.9174 3.0080 0.8988 0.8095 -0.2797 -0.5162
0.9541 3.0855 0.9095 0.6882 -0.2360 -0.6861
0.8954 3.0267 0.8756 0.1604 0.1025 -0.9817
1.0029 3.1411 0.9331 0.5943 -0.3713 -0.7134
0.9765 3.1523 0.9196 0.0769 0.3392 -0.9376
1.0705 3.1829 0.9563 0.7067 -0.3793 -0.5973
1.0401 3.2092 0.9396 0.0395 0.3975 -0.9167
1.0818 3.2539 0.9688 0.3373 0.8858 -0.3187
1.0222 3.2179 0.9623 -0.4882 0.8289 -0.2729
0.9286 3.1012 0.8973 0.0051 0.3627 -0.9319
0.9386 3.1706 0.9482 -0.5175 0.7808 -0.3500
0.8854 3.1152 0.9377 -0.6587 0.6915 -0.2967
0.9044 2.9423 0.9405 0.8631 -0.4140 0.2892
0.9256 2.9968 0.9503 0.8492 -0.4652 0.2498
0.9786 3.0758 0.9808 0.7056 -0.6512 0.2794
1.0220 3.1215 0.9969 0.6179 -0.7170 0.3227
1.0731 3.1715 1.0023 0.7367 -0.5650 0.3715
0.8762 3.0039 0.9981 0.0085 -0.2002 0.9797
0.9208 3.0846 1.0148 -0.1057 -0.1400 0.9845
0.9773 3.1404 1.0252 -0.0632 -0.0502 0.9967
1.0411 3.1969 1.0302 0.0091 0.1349 0.9908
0.8804 3.1044 0.9825 -0.7198 0.4748 0.5065
0.9332 3.1622 0.9934 -0.5925 0.6422 0.4864
1.0180 3.2083 1.0053 -0.5232 0.7142 0.4649
0.8769 2.6897 1.0539 0.1431 0.7183 -0.6808
0.8549 2.7076 1.0855 -0.6910 0.6986 -0.1858
0.8906 2.7175 1.0819 0.0723 0.7082 -0.7023
0.8719 2.7306 1.1052 -0.6447 0.7342 -0.2130
0.9189 2.7599 1.1327 0.2344 0.8113 -0.5356
0.8991 2.7651 1.1425 -0.4954 0.8567 -0.1437
0.9257 2.7735 1.1856 -0.1651 0.9671 0.1934
0.9693 2.7246 1.1363 0.7884 0.3751 -0.4877
0.9422 2.6832 1.0820 0.7290 0.2102 -0.6514
0.9096 2.6431 1.0408 0.7787 0.1911 -0.5976
0.9842 2.6906 1.1680 0.9035 -0.3958 0.1645
0.9853 2.7260 1.2110 0.8614 -0.4025 0.3097
0.9635 2.6525 1.1417 0.7964 -0.5850 0.1538
0.9351 2.6185 1.1009 0.7912 -0.6115 0.0061
0.9015 2.5720 1.0491 0.8566 -0.5083 0.0890
0.9113 2.6649 1.1770 -0.1437 -0.4740 0.8687
0.9362 2.7085 1.2022 -0.1728 -0.5131 0.8408
0.8882 2.6273 1.1547 -0.1395 -0.5539 0.8208
0.8608 2.5831 1.1139 -0.1262 -0.6979 0.7050
0.8440 2.5488 1.0719 -0.0714 -0.6733 0.7359
0.8200 2.4678 1.0086 0.0278 -0.6791 0.7335
0.8959 2.7350 1.1900 -0.7853 0.1476 0.6013
0.8520 2.6712 1.1338 -0.8166 0.1450 0.5587
0.8220 2.6206 1.0985 -0.8387 -0.0129 0.5444
0.7929 2.5796 1.0471 -0.7977 -0.0252 0.6025
0.7584 2.5359 0.9993 -0.7347 -0.1181 0.6680
0.8763 2.7026 1.1582 -0.8308 0.1083 0.5460
0.5572 2.3938 0.6635 -0.9525 0.0548 0.2996
1.1765 3.1925 0.8253 0.7052 -0.4969 -0.5057
1.1457 3.2215 0.8040 0.1045 0.3504 -0.9308
1.0459 2.8961 0.5484 0.3900 -0.9201 -0.0364
1.0326 2.9083 0.5817 0.0177 -0.6385 0.7694
0.7003 2.4754 0.9199 -0.7726 -0.1572 0.6151
0.6118 1.3671 0.4526 0.0872 -0.2472 0.9650
0.4610 1.1950 -0.0166 0.0256 0.1921 -0.9810
0.6316 1.0920 0.1186 0.8166 -0.2336 -0.5279
0.6491 1.0745 0.2760 0.9090 -0.3885 0.1511
0.2689 1.2299 0.1192 -0.8024 0.4915 -0.3385
0.2511 1.1749 0.3068 -0.7942 0.3440 0.5009
0.3564 1.1240 0.3839 -0.3995 0.0377 0.9160
0.5882 1.0766 0.3781 0.5465 -0.3528 0.7596
0.4874 1.1044 0.4065 0.0059 -0.1737 0.9848
0 1 2
3 4 5
6 7 8
7 9 10
7 10 11
12 13 14
12 15 16
17 12 16
12 14 15
18 19 20
21 22 23
24 25 26
27 28 29
30 31 32
33 34 35
36 37 35
36 38 37
39 33 40
39 41 42
42 43 44
45 46 38
35 30 47
48 49 50
51 52 53
54 55 56
57 53 54
56 58 59
31 60 52
52 61 55
62 63 64
65 64 66
32 67 68
68 69 70
71 69 62
72 62 65
73 74 59
63 54 75
64 75 76
56 77 78
79 78 80
81 82 77
59 83 77
84 70 85
70 71 86
87 17 88
89 88 90
86 91 85
84 85 92
92 91 93
94 95 87
93 94 89
37 38 31
96 74 97
60 98 61
38 46 60
58 99 73
61 100 58
101 80 102
59 96 103
82 104 80
105 76 106
47 68 84
71 72 107
108 90 109
47 84 110
110 92 111
111 93 108
107 6 86
95 112 17
83 103 113
113 90 83
66 114 8
64 105 114
76 115 116
117 115 76
118 119 120
79 101 118
17 121 118
118 122 17
95 123 115
95 115 124
114 125 6
114 126 127
128 129 130
131 128 132
133 134 135
133 136 137
138 139 27
139 140 28
141 142 143
143 144 145
146 43 109
147 8 11
147 11 10
148 10 149
149 150 151
150 152 153
154 152 130
65 147 155
155 148 156
75 54 56
5 151 153
5 154 129
157 65 155
158 159 160
161 158 160
162 129 128
162 5 129
10 9 163
149 163 164
165 150 164
152 165 132
166 167 168
167 3 169
169 162 170
170 128 131
116 171 172
171 173 174
174 173 175
174 175 24
176 135 134
177 106 172
178 172 174
179 174 24
180 26 134
105 177 181
181 178 182
182 179 183
183 184 185
185 186 187
187 180 133
127 181 188
188 182 189
189 183 190
190 185 191
191 187 192
187 133 137
25 193 176
176 194 136
107 195 6
195 196 9
170 164 169
131 165 170
189 190 197
190 191 198
191 192 194
192 137 136
29 199 27
200 2 201
202 201 203
199 203 138
120 119 23
18 20 201
20 139 138
112 124 50
124 48 50
204 28 19
205 204 206
67 51 57
101 207 122
208 207 209
209 210 211
210 212 213
212 214 215
214 141 215
215 216 145
213 215 217
218 213 219
13 218 220
50 49 21
101 102 207
207 221 222
209 222 210
210 223 212
212 224 214
214 225 142
222 226 227
227 228 223
224 228 229
225 229 142
226 14 230
227 230 231
228 231 232
229 232 144
219 217 232
217 145 144
233 234 97
234 235 236
237 238 236
239 238 237
240 161 160
240 237 241
242 241 233
242 74 73
243 244 161
240 245 243
241 246 245
242 247 246
248 249 243
250 248 245
246 251 250
247 252 251
99 253 252
239 159 254
234 255 256
72 195 107
103 257 258
103 96 257
252 257 256
256 255 250
255 259 248
249 254 159
248 259 254
43 260 109
111 108 260
110 111 41
40 47 110
102 104 221
123 171 116
49 205 206
48 261 262
261 48 200
220 230 14
1 22 2
4 263 264
188 197 123
197 175 173
125 127 95
16 15 104
146 258 253
100 146 253
7 11 8
208 211 13
12 122 208
12 208 13
0 2 200
167 263 4
3 5 162
167 4 3
100 98 146
98 46 43
98 43 146
146 265 258
258 257 252
253 258 252
15 14 226
81 88 82
88 81 90
83 90 81
82 16 104
15 226 104
88 16 82
125 95 94
125 94 91
127 123 95
266 43 46
44 43 266
197 198 175
198 193 25
175 198 25
127 188 123
188 189 197
263 148 264
4 264 151
263 156 148
22 18 2
2 18 201
1 23 22
13 220 14
220 219 231
220 231 230
117 48 124
261 29 262
117 0 48
0 200 48
261 202 29
49 206 21
123 197 171
197 173 171
104 226 221
221 226 222
35 47 40
40 110 41
41 111 260
260 108 109
248 254 249
249 159 158
250 255 248
251 256 250
251 252 256
72 157 195
157 166 196
238 254 259
157 196 195
238 239 254
96 97 257
236 259 255
97 256 257
97 234 256
236 238 259
234 236 255
100 253 99
99 252 247
247 251 246
246 250 245
248 243 245
243 249 244
73 247 242
242 246 241
241 245 240
240 243 161
242 233 74
233 241 235
241 237 235
240 160 237
160 239 237
237 236 235
233 235 234
233 97 74
217 144 232
219 232 231
229 144 143
228 232 229
227 231 228
226 230 227
229 143 142
224 229 225
223 228 224
222 227 223
214 142 141
214 224 225
212 223 224
210 222 223
207 222 209
207 102 221
211 218 13
50 21 121
112 50 121
220 218 219
213 217 219
215 145 217
215 141 216
212 215 213
210 213 218
211 210 218
208 209 211
122 207 208
69 57 63
67 32 51
31 52 51
67 57 69
204 19 206
32 31 51
28 140 19
76 79 117
0 120 1
117 79 120
117 120 0
20 138 203
201 20 203
120 23 1
202 203 199
261 201 202
200 201 261
29 202 199
192 136 194
191 194 193
191 193 198
190 198 197
131 132 165
170 165 164
195 9 7
195 7 6
176 136 135
193 194 176
187 137 192
185 187 191
183 185 190
182 183 189
181 182 188
126 181 127
186 180 187
184 186 185
179 184 183
178 179 182
177 178 181
126 105 181
186 26 180
178 174 179
177 172 178
105 106 177
26 176 134
163 9 196
169 164 168
168 163 196
164 163 168
172 171 174
106 116 172
162 128 170
3 162 169
167 169 168
166 168 196
152 132 130
150 165 152
164 150 149
163 149 10
184 24 26
184 26 186
179 24 184
160 159 239
72 65 157
154 5 153
5 4 151
75 56 78
75 79 76
75 78 79
155 147 148
65 66 147
20 19 140
20 140 139
18 206 19
265 113 258
113 103 258
109 90 113
109 113 265
121 21 23
22 206 18
21 206 22
121 23 119
25 176 26
24 175 25
262 29 204
29 28 204
205 262 204
30 37 31
33 35 40
34 36 35
36 45 38
39 40 41
42 41 260
42 260 43
266 46 45
35 37 30
49 262 205
48 262 49
53 52 55
53 55 54
57 51 53
55 58 56
52 60 61
55 61 58
69 63 62
62 64 65
30 32 68
67 69 68
69 71 70
71 62 72
73 59 58
57 54 63
63 75 64
56 59 77
78 77 80
77 82 80
83 81 77
68 70 84
85 70 86
17 16 88
89 87 88
86 125 91
85 91 92
91 94 93
95 17 87
94 87 89
31 38 60
74 96 59
61 98 100
60 46 98
73 99 247
58 100 99
79 80 101
103 83 59
80 104 102
64 76 105
30 68 47
86 71 107
108 89 90
84 92 110
92 93 111
93 89 108
86 6 125
112 121 17
64 114 66
114 105 126
76 116 106
115 117 124
79 118 120
101 122 118
118 121 119
122 12 17
123 116 115
95 124 112
8 114 6
125 114 127
166 156 167
157 156 166
167 156 263
157 155 156
129 154 130
128 130 132
180 134 133
133 135 136
199 138 27
28 27 139
141 143 216
143 145 216
146 109 265
66 8 147
147 10 148
148 149 264
264 149 151
151 150 153
153 152 154
42 272 271
42 44 272
39 271 270
39 42 271
33 270 267
33 39 270
34 267 268
34 33 267
36 268 269
36 34 268
266 273 274
266 45 273
44 274 272
44 266 274
45 269 273
45 36 269
275 277 276
278 280 279
281 283 282
282 285 284
282 286 285
287 289 288
287 291 290
292 291 287
287 290 289
293 295 294
296 298 297
299 301 300
302 304 303
305 307 306
308 310 309
311 310 312
311 312 313
314 315 308
314 317 316
317 319 318
320 313 321
310 322 305
323 325 324
326 328 327
329 331 330
332 329 328
331 334 333
306 327 335
327 330 336
337 339 338
340 341 339
307 343 342
343 345 344
346 337 344
347 340 337
348 334 349
338 350 329
339 351 350
331 353 352
354 355 353
356 352 357
334 352 358
359 360 345
345 361 346
362 363 292
364 365 363
361 360 366
359 367 360
367 368 366
369 362 370
368 364 369
312 306 313
371 372 349
335 336 373
313 335 321
333 348 374
336 333 375
376 377 355
334 378 371
357 355 379
380 381 351
322 359 343
346 382 347
383 384 365
322 385 359
385 386 367
386 383 368
382 361 281
370 292 387
358 388 378
388 358 365
341 283 389
339 389 380
351 391 390
392 351 390
393 395 394
354 393 376
292 393 396
393 292 397
370 390 398
370 399 390
389 281 400
389 402 401
403 405 404
406 407 403
408 410 409
408 412 411
413 302 414
414 303 415
416 418 417
418 420 419
421 384 318
422 286 283
422 285 286
423 424 285
424 426 425
425 428 427
429 405 427
340 430 422
430 431 423
350 331 329
280 428 426
280 404 429
432 430 340
433 435 434
436 435 433
437 403 404
437 404 280
285 438 284
424 439 438
440 439 425
427 407 440
441 443 442
442 444 278
444 445 437
445 406 403
391 447 446
446 449 448
449 450 448
449 299 450
451 409 410
452 447 381
453 449 447
454 299 449
455 409 301
380 456 452
456 457 453
457 458 454
458 460 459
460 462 461
462 408 455
402 463 456
463 464 457
464 465 458
465 466 460
466 467 462
462 412 408
300 451 468
451 411 469
382 281 470
470 284 471
445 444 439
406 445 440
464 472 465
465 473 466
466 469 467
467 411 412
304 302 474
475 476 277
477 478 476
474 413 478
395 298 394
293 476 295
295 413 414
387 325 399
399 325 323
479 294 303
480 481 479
342 332 326
376 397 482
483 484 482
484 486 485
485 488 487
487 490 489
489 490 416
490 420 491
488 492 490
493 494 488
288 495 493
325 296 324
376 482 377
482 497 496
484 485 497
485 487 498
487 489 499
489 417 500
497 502 501
502 498 503
499 504 503
500 417 504
501 505 289
502 506 505
503 507 506
504 419 507
494 507 492
492 419 420
508 372 509
509 511 510
512 511 513
514 512 513
515 435 436
515 516 512
517 508 516
517 348 349
518 436 519
515 518 520
516 520 521
517 521 522
523 518 524
525 520 523
521 525 526
522 526 527
374 527 528
514 529 434
509 531 530
347 382 470
378 533 532
378 532 371
527 531 532
531 525 530
530 523 534
524 434 529
523 529 534
318 384 535
386 535 383
385 316 386
315 385 322
377 496 379
398 391 446
324 481 480
323 537 536
536 475 323
495 289 505
276 277 297
279 539 538
463 398 472
472 448 450
400 370 402
291 379 290
421 528 533
375 528 421
282 283 286
483 288 486
287 483 397
287 288 483
275 475 277
442 279 538
278 437 280
442 278 279
375 421 373
373 318 321
373 421 318
421 533 540
533 527 532
528 527 533
290 501 289
356 357 363
363 365 356
358 356 365
357 379 291
290 379 501
363 357 291
400 369 370
400 366 369
402 370 398
541 321 318
319 541 318
472 450 473
473 300 468
450 300 473
402 398 463
463 472 464
538 539 423
279 426 539
538 423 431
297 277 293
277 476 293
276 297 298
288 289 495
495 506 494
495 505 506
392 399 323
536 537 304
392 323 275
275 323 475
536 304 477
324 296 481
398 446 472
472 446 448
379 496 501
496 497 501
310 315 322
315 316 385
316 535 386
535 384 383
523 524 529
524 433 434
525 523 530
526 525 531
526 531 527
347 470 432
432 471 441
513 534 529
432 470 471
513 529 514
371 532 372
511 530 534
372 532 531
372 531 509
511 534 513
509 530 511
375 374 528
374 522 527
522 521 526
521 520 525
523 520 518
518 519 524
348 517 522
517 516 521
516 515 520
515 436 518
517 349 508
508 510 516
516 510 512
515 512 435
435 512 514
512 510 511
508 509 510
508 349 372
492 507 419
494 506 507
504 418 419
503 504 507
502 503 506
501 502 505
504 417 418
499 500 504
498 499 503
497 498 502
489 416 417
489 500 499
487 499 498
485 498 497
482 484 497
482 496 377
486 288 493
325 396 296
387 396 325
495 494 493
488 494 492
490 492 420
490 491 416
487 488 490
485 493 488
486 493 485
483 486 484
397 483 482
344 338 332
342 326 307
306 326 327
342 344 332
479 481 294
307 326 306
303 294 415
351 392 354
275 276 395
392 395 354
392 275 395
295 478 413
476 478 295
395 276 298
477 474 478
536 477 476
475 536 476
304 474 477
467 469 411
466 468 469
466 473 468
465 472 473
406 440 407
445 439 440
470 282 284
470 281 282
451 410 411
468 451 469
462 467 412
460 466 462
458 465 460
457 464 458
456 463 457
401 402 456
461 462 455
459 460 461
454 458 459
453 457 454
452 456 453
401 456 380
461 455 301
453 454 449
452 453 447
380 452 381
301 409 451
438 471 284
444 443 439
443 471 438
439 443 438
447 449 446
381 447 391
437 445 403
278 444 437
442 443 444
441 471 443
427 405 407
425 427 440
439 424 425
438 285 424
459 301 299
459 461 301
454 459 299
435 514 434
347 432 340
429 428 280
280 426 279
350 353 331
350 351 354
350 354 353
430 423 422
340 422 341
295 415 294
295 414 415
293 294 481
540 533 388
388 533 378
384 388 365
384 540 388
396 298 296
297 293 481
296 297 481
396 394 298
300 301 451
299 300 450
537 479 304
304 479 303
480 479 537
305 306 312
308 315 310
309 310 311
311 313 320
314 316 315
317 535 316
317 318 535
541 320 321
310 305 312
324 480 537
323 324 537
328 330 327
328 329 330
332 328 326
330 331 333
327 336 335
330 333 336
344 337 338
337 340 339
305 343 307
342 343 344
344 345 346
346 347 337
348 333 334
332 338 329
338 339 350
331 352 334
353 355 352
352 355 357
358 352 356
343 359 345
360 361 345
292 363 291
364 363 362
361 366 400
360 367 366
366 368 369
370 362 292
369 364 362
306 335 313
349 334 371
336 375 373
335 373 321
348 522 374
333 374 375
354 376 355
378 334 358
355 377 379
339 380 351
305 322 343
361 382 346
383 365 364
359 385 367
367 386 368
368 383 364
361 400 281
387 292 396
339 341 389
389 401 380
351 381 391
390 399 392
354 395 393
376 393 397
393 394 396
397 292 287
398 390 391
370 387 399
283 281 389
400 402 389
441 442 431
432 441 431
442 538 431
432 431 430
404 405 429
403 407 405
455 408 409
408 411 410
474 302 413
303 414 302
416 491 418
418 491 420
421 540 384
341 422 283
422 423 285
423 539 424
539 426 424
426 428 425
428 429 427
317 547 319
317 546 547
314 546 317
314 545 546
308 545 314
308 542 545
309 542 308
309 543 542
311 543 309
311 544 543
541 548 320
541 549 548
319 549 541
319 547 549
320 544 311
320 548 544
LABEL Group_10
MATERIAL 1
TEXTURE 0
FLAG 0
GEOM 58 48
1.7270 0.8873 -0.6433 0.8457 0.5336 0.0000
1.7270 0.8873 -0.6175 0.8457 0.5336 0.0000
0.9805 0.5029 -0.6175 0.0000 0.0000 1.0000
0.9805 0.5029 -0.6433 -0.8457 -0.5336 0.0000
1.5464 1.1736 -0.6433 0.7780 0.6282 0.0000
1.5464 1.1736 -0.6175 0.8133 0.5818 0.0000
0.8780 0.6653 -0.6175 0.0000 0.0000 1.0000
0.8780 0.6653 -0.6433 -0.8133 -0.5818 -0.0000
1.3188 1.4241 -0.6433 0.6571 0.7538 0.0000
1.3188 1.4241 -0.6175 0.6999 0.7142 0.0000
0.7488 0.8075 -0.6175 0.0000 0.0000 1.0000
0.7488 0.8075 -0.6433 -0.6999 -0.7142 -0.0000
1.0512 1.6314 -0.6433 0.5162 0.8564 0.0000
1.0512 1.6314 -0.6175 0.5653 0.8249 0.0000
0.5969 0.9252 -0.6175 0.0000 0.0000 1.0000
0.5969 0.9252 -0.6433 -0.5653 -0.8249 -0.0000
0.7516 1.7890 -0.6433 0.3596 0.9331 0.0000
0.7516 1.7890 -0.6175 0.4134 0.9105 0.0000
0.4269 1.0146 -0.6175 0.0000 0.0000 1.0000
0.4269 1.0146 -0.6433 -0.4134 -0.9105 -0.0000
0.4293 1.8921 -0.6433 0.3048 0.9524 0.0000
0.4293 1.8921 -0.6175 0.3048 0.9524 0.0000
0.2440 1.0732 -0.6175 0.0000 -0.0000 1.0000
0.2440 1.0732 -0.6433 -0.3049 -0.9524 0.0000
1.3537 0.6951 -0.6304 0.4579 -0.8890 0.0000
0.3366 1.4827 -0.6304 -0.9753 0.2207 0.0000
1.7270 0.8873 -0.6433 0.0000 0.0000 -1.0000
1.7270 0.8873 -0.6433 0.4579 -0.8890 0.0000
1.7270 0.8873 -0.6175 0.0000 0.0000 1.0000
1.7270 0.8873 -0.6175 0.4579 -0.8890 0.0000
0.9805 0.5029 -0.6175 -0.8457 -0.5336 0.0000
0.9805 0.5029 -0.6175 0.4579 -0.8890 -0.0001
0.9805 0.5029 -0.6433 0.0000 0.0000 -1.0000
0.9805 0.5029 -0.6433 0.4579 -0.8890 0.0000
1.5464 1.1736 -0.6433 0.0000 0.0000 -1.0000
1.5464 1.1736 -0.6175 0.0000 0.0000 1.0000
0.8780 0.6653 -0.6175 -0.7780 -0.6282 0.0000
0.8780 0.6653 -0.6433 0.0000 0.0000 -1.0000
1.3188 1.4241 -0.6433 0.0000 0.0000 -1.0000
1.3188 1.4241 -0.6175 0.0000 0.0000 1.0000
0.7488 0.8075 -0.6175 -0.6571 -0.7538 0.0000
0.7488 0.8075 -0.6433 0.0000 0.0000 -1.0000
1.0512 1.6314 -0.6433 0.0000 0.0000 -1.0000
1.0512 1.6314 -0.6175 0.0000 0.0000 1.0000
0.5969 0.9252 -0.6175 -0.5162 -0.8565 0.0000
0.5969 0.9252 -0.6433 0.0000 0.0000 -1.0000
0.7516 1.7890 -0.6433 0.0000 0.0000 -1.0000
0.7516 1.7890 -0.6175 0.0000 0.0000 1.0000
0.4269 1.0146 -0.6175 -0.3597 -0.9331 0.0000
0.4269 1.0146 -0.6433 0.0000 0.0000 -1.0000
0.4293 1.8921 -0.6433 0.0000 0.0000 -1.0000
0.4293 1.8921 -0.6433 -0.9753 0.2207 0.0000
0.4293 1.8921 -0.6175 0.0000 -0.0000 1.0000
0.4293 1.8921 -0.6175 -0.9753 0.2207 0.0000
0.2440 1.0732 -0.6175 -0.3049 -0.9524 0.0000
0.2440 1.0732 -0.6175 -0.9753 0.2207 0.0001
0.2440 1.0732 -0.6433 0.0000 0.0000 -1.0000
0.2440 1.0732 -0.6433 -0.9753 0.2207 0.0000
0 4 5
0 5 1
28 35 6
28 6 2
30 36 7
30 7 3
32 37 34
32 34 26
4 8 9
4 9 5
35 39 10
35 10 6
36 40 11
36 11 7
37 41 38
37 38 34
8 12 13
8 13 9
39 43 14
39 14 10
40 44 15
40 15 11
41 45 42
41 42 38
12 16 17
12 17 13
43 47 18
43 18 14
44 48 19
44 19 15
45 49 46
45 46 42
16 20 21
16 21 17
47 52 22
47 22 18
48 54 23
48 23 19
49 56 50
49 50 46
24 27 29
24 29 31
24 31 33
24 33 27
25 53 51
25 55 53
25 57 55
25 51 57
LABEL Group_11
MATERIAL 1
TEXTURE 0
FLAG 0
GEOM 58 48
1.7270 0.8873 1.2509 0.8457 0.5336 0.0000
1.7270 0.8873 1.2767 0.8457 0.5336 0.0000
0.4746 0.2423 1.2767 0.0000 0.0000 1.0000
0.4746 0.2423 1.2509 -0.8457 -0.5336 0.0000
1.5464 1.1736 1.2509 0.7780 0.6282 0.0000
1.5464 1.1736 1.2767 0.8133 0.5818 0.0000
0.4250 0.3209 1.2767 0.0000 -0.0000 1.0000
0.4250 0.3209 1.2509 -0.8133 -0.5818 -0.0000
1.3188 1.4241 1.2509 0.6571 0.7538 0.0000
1.3188 1.4241 1.2767 0.6999 0.7142 0.0000
0.3626 0.3897 1.2767 0.0000 0.0000 1.0000
0.3626 0.3897 1.2509 -0.6999 -0.7142 -0.0000
1.0512 1.6314 1.2509 0.5162 0.8564 0.0000
1.0512 1.6314 1.2767 0.5653 0.8249 0.0000
0.2891 0.4466 1.2767 0.0000 -0.0000 1.0000
0.2891 0.4466 1.2509 -0.5653 -0.8249 -0.0000
0.7516 1.7890 1.2509 0.3596 0.9331 0.0000
0.7516 1.7890 1.2767 0.4134 0.9105 0.0000
0.2069 0.4898 1.2767 0.0000 0.0000 1.0000
0.2069 0.4898 1.2509 -0.4134 -0.9105 -0.0000
0.4293 1.8921 1.2509 0.3048 0.9524 0.0000
0.4293 1.8921 1.2767 0.3048 0.9524 0.0000
0.1184 0.5181 1.2767 0.0000 0.0000 1.0000
0.1184 0.5181 1.2509 -0.3049 -0.9524 0.0000
1.1008 0.5648 1.2638 0.4579 -0.8890 0.0000
0.2738 1.2051 1.2638 -0.9753 0.2207 0.0000
1.7270 0.8873 1.2509 0.0000 0.0000 -1.0000
1.7270 0.8873 1.2509 0.4579 -0.8890 0.0000
1.7270 0.8873 1.2767 0.0000 -0.0000 1.0000
1.7270 0.8873 1.2767 0.4579 -0.8890 0.0000
0.4746 0.2423 1.2767 -0.8457 -0.5336 0.0000
0.4746 0.2423 1.2767 0.4579 -0.8890 -0.0002
0.4746 0.2423 1.2509 0.0000 0.0000 -1.0000
0.4746 0.2423 1.2509 0.4579 -0.8890 0.0000
1.5464 1.1736 1.2509 0.0000 0.0000 -1.0000
1.5464 1.1736 1.2767 0.0000 -0.0000 1.0000
0.4250 0.3209 1.2767 -0.7780 -0.6282 0.0000
0.4250 0.3209 1.2509 0.0000 0.0000 -1.0000
1.3188 1.4241 1.2509 0.0000 -0.0000 -1.0000
1.3188 1.4241 1.2767 0.0000 0.0000 1.0000
0.3626 0.3897 1.2767 -0.6571 -0.7538 0.0000
0.3626 0.3897 1.2509 0.0000 -0.0000 -1.0000
1.0512 1.6314 1.2509 0.0000 -0.0000 -1.0000
1.0512 1.6314 1.2767 0.0000 -0.0000 1.0000
0.2891 0.4466 1.2767 -0.5162 -0.8565 0.0000
0.2891 0.4466 1.2509 0.0000 -0.0000 -1.0000
0.7516 1.7890 1.2509 0.0000 -0.0000 -1.0000
0.7516 1.7890 1.2767 0.0000 0.0000 1.0000
0.2069 0.4898 1.2767 -0.3597 -0.9331 0.0000
0.2069 0.4898 1.2509 0.0000 -0.0000 -1.0000
0.4293 1.8921 1.2509 0.0000 0.0000 -1.0000
0.4293 1.8921 1.2509 -0.9753 0.2207 0.0000
0.4293 1.8921 1.2767 0.0000 0.0000 1.0000
0.4293 1.8921 1.2767 -0.9753 0.2207 0.0000
0.1184 0.5181 1.2767 -0.3049 -0.9524 0.0000
0.1184 0.5181 1.2767 -0.9753 0.2207 -0.0001
0.1184 0.5181 1.2509 0.0000 0.0000 -1.0000
0.1184 0.5181 1.2509 -0.9753 0.2207 0.0000
0 4 5
0 5 1
28 35 6
28 6 2
30 36 7
30 7 3
32 37 34
32 34 26
4 8 9
4 9 5
35 39 10
35 10 6
36 40 11
36 11 7
37 41 38
37 38 34
8 12 13
8 13 9
39 43 14
39 14 10
40 44 15
40 15 11
41 45 42
41 42 38
12 16 17
12 17 13
43 47 18
43 18 14
44 48 19
44 19 15
45 49 46
45 46 42
16 20 21
16 21 17
47 52 22
47 22 18
48 54 23
48 23 19
49 56 50
49 50 46
24 27 29
24 29 31
24 31 33
24 33 27
25 53 51
25 55 53
25 57 55
25 51 57
LABEL Group_12
MATERIAL 1
TEXTURE 0
FLAG 0
GEOM 58 48
1.7270 0.8873 1.8137 0.8457 0.5336 0.0000
1.7270 0.8873 1.8395 0.8457 0.5336 0.0000
0.4746 0.2423 1.8395 0.0000 0.0000 1.0000
0.4746 0.2423 1.8137 -0.8457 -0.5336 0.0000
1.5464 1.1736 1.8137 0.7780 0.6282 0.0000
1.5464 1.1736 1.8395 0.8133 0.5818 0.0000
0.4250 0.3209 1.8395 0.0000 0.0000 1.0000
0.4250 0.3209 1.8137 -0.8133 -0.5818 -0.0000
1.3188 1.4241 1.8137 0.6571 0.7538 0.0000
1.3188 1.4241 1.8395 0.6999 0.7142 0.0000
0.3626 0.3897 1.8395 0.0000 -0.0000 1.0000
0.3626 0.3897 1.8137 -0.6999 -0.7142 -0.0000
1.0512 1.6314 1.8137 0.5162 0.8564 0.0000
1.0512 1.6314 1.8395 0.5653 0.8249 0.0000
0.2891 0.4466 1.8395 0.0000 0.0000 1.0000
0.2891 0.4466 1.8137 -0.5653 -0.8249 -0.0000
0.7516 1.7890 1.8137 0.3596 0.9331 0.0000
0.7516 1.7890 1.8395 0.4134 0.9105 0.0000
0.2069 0.4898 1.8395 0.0000 0.0000 1.0000
0.2069 0.4898 1.8137 -0.4134 -0.9105 -0.0000
0.4293 1.8921 1.8137 0.3048 0.9524 0.0000
0.4293 1.8921 1.8395 0.3048 0.9524 0.0000
0.1184 0.5181 1.8395 0.0000 0.0000 1.0000
0.1184 0.5181 1.8137 -0.3049 -0.9524 0.0000
1.1008 0.5648 1.8266 0.4579 -0.8890 0.0000
0.2738 1.2051 1.8266 -0.9753 0.2207 0.0000
1.7270 0.8873 1.8137 0.0000 -0.0000 -1.0000
1.7270 0.8873 1.8137 0.4579 -0.8890 0.0000
1.7270 0.8873 1.8395 0.0000 0.0000 1.0000
1.7270 0.8873 1.8395 0.4579 -0.8890 0.0000
0.4746 0.2423 1.8395 -0.8457 -0.5336 0.0000
0.4746 0.2423 1.8395 0.4579 -0.8890 -0.0002
0.4746 0.2423 1.8137 0.0000 0.0000 -1.0000
0.4746 0.2423 1.8137 0.4579 -0.8890 0.0000
1.5464 1.1736 1.8137 0.0000 0.0000 -1.0000
1.5464 1.1736 1.8395 0.0000 0.0000 1.0000
0.4250 0.3209 1.8395 -0.7780 -0.6282 0.0000
0.4250 0.3209 1.8137 0.0000 0.0000 -1.0000
1.3188 1.4241 1.8137 0.0000 0.0000 -1.0000
1.3188 1.4241 1.8395 0.0000 -0.0000 1.0000
0.3626 0.3897 1.8395 -0.6571 -0.7538 0.0000
0.3626 0.3897 1.8137 0.0000 0.0000 -1.0000
1.0512 1.6314 1.8137 0.0000 -0.0000 -1.0000
1.0512 1.6314 1.8395 0.0000 0.0000 1.0000
0.2891 0.4466 1.8395 -0.5162 -0.8564 0.0000
0.2891 0.4466 1.8137 0.0000 -0.0000 -1.0000
0.7516 1.7890 1.8137 0.0000 0.0000 -1.0000
0.7516 1.7890 1.8395 0.0000 0.0000 1.0000
0.2069 0.4898 1.8395 -0.3597 -0.9331 0.0000
0.2069 0.4898 1.8137 0.0000 0.0000 -1.0000
0.4293 1.8921 1.8137 0.0000 0.0000 -1.0000
0.4293 1.8921 1.8137 -0.9753 0.2207 0.0000
0.4293 1.8921 1.8395 0.0000 0.0000 1.0000
0.4293 1.8921 1.8395 -0.9753 0.2207 0.0000
0.1184 0.5181 1.8395 -0.3049 -0.9524 0.0000
0.1184 0.5181 1.8395 -0.9753 0.2207 -0.0001
0.1184 0.5181 1.8137 0.0000 0.0000 -1.0000
0.1184 0.5181 1.8137 -0.9753 0.2207 0.0000
0 4 5
0 5 1
28 35 6
28 6 2
30 36 7
30 7 3
32 37 34
32 34 26
4 8 9
4 9 5
35 39 10
35 10 6
36 40 11
36 11 7
37 41 38
37 38 34
8 12 13
8 13 9
39 43 14
39 14 10
40 44 15
40 15 11
41 45 42
41 42 38
12 16 17
12 17 13
43 47 18
43 18 14
44 48 19
44 19 15
45 49 46
45 46 42
16 20 21
16 21 17
47 52 22
47 22 18
48 54 23
48 23 19
49 56 50
49 50 46
24 27 29
24 29 31
24 31 33
24 33 27
25 53 51
25 55 53
25 57 55
25 51 57
LABEL Group_2
MATERIAL 2
TEXTURE 0
FLAG 0
GEOM 24 12
1.2421 0.6853 -1.2277 0.0000 0.0000 -1.0000
1.1114 0.9027 -1.2277 0.0000 0.0000 -1.0000
1.6125 0.9079 -1.2277 0.0000 0.0000 -1.0000
1.4818 1.1253 -1.2277 0.0000 0.0000 -1.0000
1.2421 0.6853 -0.9225 0.0000 0.0000 1.0000
1.1114 0.9027 -0.9225 0.0000 0.0000 1.0000
1.6125 0.9079 -0.9225 0.0000 0.0000 1.0000
1.4818 1.1253 -0.9225 0.0000 0.0000 1.0000
1.2421 0.6853 -1.2277 -0.8572 -0.5150 0.0000
1.2421 0.6853 -1.2277 0.5150 -0.8572 0.0000
1.1114 0.9027 -1.2277 -0.8572 -0.5150 0.0000
1.1114 0.9027 -1.2277 -0.5150 0.8572 0.0000
1.6125 0.9079 -1.2277 0.8572 0.5151 0.0000
1.6125 0.9079 -1.2277 0.5150 -0.8572 0.0000
1.4818 1.1253 -1.2277 -0.5150 0.8572 0.0000
1.4818 1.1253 -1.2277 0.8572 0.5151 0.0000
1.2421 0.6853 -0.9225 -0.8572 -0.5150 0.0000
1.2421 0.6853 -0.9225 0.5150 -0.8572 0.0000
1.1114 0.9027 -0.9225 -0.8572 -0.5150 0.0000
1.1114 0.9027 -0.9225 -0.5150 0.8572 0.0000
1.6125 0.9079 -0.9225 0.8572 0.5151 0.0000
1.6125 0.9079 -0.9225 0.5150 -0.8572 0.0000
1.4818 1.1253 -0.9225 -0.5150 0.8572 0.0000
1.4818 1.1253 -0.9225 0.8572 0.5151 0.0000
0 3 2
3 0 1
4 7 5
7 4 6
8 18 10
18 8 16
11 22 14
22 11 19
15 20 12
20 15 23
13 17 9
17 13 21
LABEL Group_3
MATERIAL 3
TEXTURE 0
FLAG 0
GEOM 32 20
1.0839 0.9268 -1.2485 0.0000 0.0000 -1.0000
0.6048 1.2722 -1.2485 0.0000 0.0000 -1.0000
0.4357 1.3681 -1.2485 0.0000 0.0000 -1.0000
1.4849 1.1369 -1.2485 0.0000 0.0000 -1.0000
0.9037 1.6285 -1.2485 0.0000 0.0000 -1.0000
0.5056 1.7720 -1.2485 0.0000 0.0000 -1.0000
1.0839 0.9268 -0.9790 0.0000 0.0000 1.0000
0.6048 1.2722 -0.9790 0.2818 -0.1042 0.9538
0.4357 1.3681 -0.8475 0.5751 -0.0995 0.8120
1.4849 1.1369 -0.9790 0.0000 0.0000 1.0000
0.9037 1.6285 -0.9790 0.0812 -0.0681 0.9944
0.5056 1.7720 -0.8475 0.4154 -0.1535 0.8966
1.0839 0.9268 -1.2485 -0.5848 -0.8112 0.0000
1.0839 0.9268 -1.2485 0.4640 -0.8858 0.0000
0.6048 1.2722 -1.2485 -0.5245 -0.8514 -0.0000
0.4357 1.3681 -1.2485 -0.4933 -0.8698 0.0000
0.4357 1.3681 -1.2485 -0.9854 0.1705 0.0000
1.4849 1.1369 -1.2485 0.6458 0.7635 0.0000
1.4849 1.1369 -1.2485 0.4640 -0.8858 0.0000
0.9037 1.6285 -1.2485 0.5513 0.8343 0.0000
0.5056 1.7720 -1.2485 -0.9854 0.1705 0.0000
0.5056 1.7720 -1.2485 0.3391 0.9407 0.0000
1.0839 0.9268 -0.9790 -0.5848 -0.8112 0.0000
1.0839 0.9268 -0.9790 0.4640 -0.8858 0.0000
0.6048 1.2722 -0.9790 -0.5550 -0.8318 -0.0000
0.4357 1.3681 -0.8475 -0.4933 -0.8698 0.0000
0.4357 1.3681 -0.8475 -0.9854 0.1705 0.0000
1.4849 1.1369 -0.9790 0.6458 0.7635 0.0000
1.4849 1.1369 -0.9790 0.4640 -0.8858 0.0000
0.9037 1.6285 -0.9790 0.4476 0.8942 -0.0000
0.5056 1.7720 -0.8475 -0.9854 0.1705 0.0000
0.5056 1.7720 -0.8475 0.3391 0.9407 0.0000
0 4 3
4 0 1
1 5 4
5 1 2
6 10 7
10 6 9
7 11 8
11 7 10
12 24 14
24 12 22
14 25 15
25 14 24
16 30 20
30 16 26
21 29 19
29 21 31
19 27 17
27 19 29
18 23 13
23 18 28
LABEL Group_4
MATERIAL 2
TEXTURE 0
FLAG 0
GEOM 45 28
1.0089 0.8421 -0.8436 0.0000 0.0000 -1.0000
0.9639 1.1108 -0.8436 0.0000 0.0000 -1.0000
1.2636 0.8856 -0.8436 -0.8438 -0.1412 -0.5177
1.2186 1.1543 -0.8436 -0.4219 -0.0706 -0.9039
1.2708 0.8864 -0.9149 -0.4219 -0.0706 -0.9039
1.2259 1.1551 -0.9149 -0.8438 -0.1412 -0.5177
1.5092 0.9258 -0.9149 0.0000 0.0000 -1.0000
1.4642 1.1945 -0.9149 0.0000 0.0000 -1.0000
1.0089 0.8421 -0.7715 0.0000 0.0000 1.0000
0.9639 1.1108 -0.7715 0.0000 0.0000 1.0000
1.2636 0.8856 -0.7715 -0.8534 -0.1458 0.5005
1.2186 1.1543 -0.7715 -0.4270 -0.0714 0.9014
1.2708 0.8864 -0.6762 -0.4269 -0.0714 0.9015
1.2259 1.1551 -0.6762 -0.8538 -0.1429 0.5005
1.5092 0.9258 -0.6762 0.0000 0.0000 1.0000
1.4642 1.1945 -0.6762 0.0000 -0.0000 1.0000
1.0089 0.8421 -0.8436 -0.9863 -0.1651 0.0000
1.0089 0.8421 -0.8436 0.1684 -0.9857 0.0000
0.9639 1.1108 -0.8436 -0.9863 -0.1651 0.0000
0.9639 1.1108 -0.8436 -0.1684 0.9857 0.0000
1.2636 0.8856 -0.8436 0.1487 -0.9889 0.0000
1.2186 1.1543 -0.8436 -0.1282 0.9917 0.0000
1.2708 0.8864 -0.9149 0.1270 -0.9919 0.0000
1.2259 1.1551 -0.9149 -0.1448 0.9895 0.0000
1.5092 0.9258 -0.9149 0.9863 0.1650 0.0000
1.5092 0.9258 -0.9149 0.1631 -0.9866 0.0000
1.4642 1.1945 -0.9149 -0.1631 0.9866 0.0000
1.4642 1.1945 -0.9149 0.9863 0.1650 0.0000
1.0089 0.8421 -0.7715 -0.9863 -0.1651 0.0000
1.0089 0.8421 -0.7715 0.1684 -0.9857 0.0000
0.9639 1.1108 -0.7715 -0.9863 -0.1651 0.0000
0.9639 1.1108 -0.7715 -0.1684 0.9857 0.0000
1.2636 0.8856 -0.7715 0.1288 -0.9917 0.0000
1.2186 1.1543 -0.7715 -0.1484 0.9889 -0.0000
1.2708 0.8864 -0.6762 0.1451 -0.9894 -0.0000
1.2259 1.1551 -0.6762 -0.1264 0.9920 0.0000
1.5092 0.9258 -0.6762 0.9863 0.1650 0.0000
1.5092 0.9258 -0.6762 0.1631 -0.9866 0.0000
1.4642 1.1945 -0.6762 -0.1631 0.9866 0.0000
1.4642 1.1945 -0.6762 0.9863 0.1650 0.0000
1.2186 1.1543 -0.8436 -0.4217 -0.0720 -0.9039
1.2636 0.8856 -0.8436 -0.8434 -0.1437 -0.5177
1.2636 0.8856 -0.7715 -0.8539 -0.1429 0.5005
1.2186 1.1543 -0.7715 -0.4263 -0.0752 0.9014
1.2636 0.8856 -0.7715 -0.8539 -0.1429 0.5005
0 3 2
40 0 1
41 5 4
5 2 3
4 7 6
7 4 5
8 11 9
11 8 10
42 13 43
13 44 12
12 15 13
15 12 14
16 30 18
30 16 28
19 33 21
33 19 31
21 35 23
35 21 33
23 38 26
38 23 35
27 36 24
36 27 39
25 34 22
34 25 37
22 32 20
32 22 34
20 29 17
29 20 32
LABEL Group_5
MATERIAL 4
TEXTURE 0
FLAG 0
GEOM 32 20
0.2281 1.0203 -0.6022 0.0000 -0.0000 -1.0000
0.4603 1.7531 -0.6022 0.0000 0.0000 -1.0000
0.6120 0.9184 -0.6022 0.0000 -0.0000 -1.0000
0.8441 1.6511 -0.6022 0.0000 -0.0000 -1.0000
0.3102 0.9980 -0.0653 0.0000 -0.0000 1.0000
0.5424 1.7308 -0.0653 0.0000 -0.0000 1.0000
0.5413 0.9395 -0.0653 0.0000 0.0000 1.0000
0.7735 1.6723 -0.0653 0.0000 -0.0000 1.0000
0.2281 1.0203 -0.3127 -0.9301 0.2947 0.2192
0.4603 1.7531 -0.3127 -0.9476 0.3002 0.1096
0.8441 1.6511 -0.3127 0.2568 0.9665 -0.0030
0.6120 0.9184 -0.3127 0.9489 -0.3006 0.0962
0.2281 1.0203 -0.6022 -0.9533 0.3020 0.0000
0.2281 1.0203 -0.6022 -0.2568 -0.9665 0.0000
0.4603 1.7531 -0.6022 -0.9533 0.3020 0.0000
0.4603 1.7531 -0.6022 0.2568 0.9665 0.0000
0.6120 0.9184 -0.6022 0.9533 -0.3020 0.0000
0.6120 0.9184 -0.6022 -0.2568 -0.9665 0.0000
0.8441 1.6511 -0.6022 0.2568 0.9665 0.0000
0.8441 1.6511 -0.6022 0.9533 -0.3020 0.0000
0.3102 0.9980 -0.0653 -0.9016 0.2856 0.3249
0.3102 0.9980 -0.0653 -0.2510 -0.9680 0.0055
0.5424 1.7308 -0.0653 -0.9016 0.2856 0.3249
0.5424 1.7308 -0.0653 0.2453 0.9694 0.0060
0.5413 0.9395 -0.0653 0.9135 -0.2894 0.2858
0.5413 0.9395 -0.0653 -0.2453 -0.9694 0.0129
0.7735 1.6723 -0.0653 0.2510 0.9680 -0.0017
0.7735 1.6723 -0.0653 0.9135 -0.2894 0.2858
0.2281 1.0203 -0.3127 -0.2568 -0.9665 -0.0009
0.4603 1.7531 -0.3127 0.2531 0.9674 -0.0011
0.8441 1.6511 -0.3127 0.9355 -0.2964 0.1923
0.6120 0.9184 -0.3127 -0.2531 -0.9674 0.0036
0 3 2
3 0 1
4 7 5
7 4 6
12 9 14
9 12 8
8 22 9
22 8 20
15 10 18
10 15 29
29 26 10
26 29 23
19 11 16
11 19 30
30 24 11
24 30 27
17 28 13
28 17 31
31 21 28
21 31 25
LABEL Group_6
MATERIAL 5
TEXTURE 0
FLAG 0
GEOM 58 48
1.2165 0.6312 -1.2674 0.8434 0.5373 0.0000
1.2165 0.6312 1.8023 0.8434 0.5373 0.0000
1.1940 0.6194 1.8023 0.0000 0.0000 1.0000
1.1940 0.6194 -1.2674 -0.8434 -0.5373 0.0000
1.0882 0.8327 -1.2674 0.7753 0.6316 0.0000
1.0882 0.8327 1.8023 0.8108 0.5854 -0.0000
1.0680 0.8172 1.8023 0.0000 0.0000 1.0000
1.0680 0.8172 -1.2674 -0.8108 -0.5854 -0.0000
0.9267 1.0088 -1.2674 0.6538 0.7566 0.0000
0.9267 1.0088 1.8023 0.6968 0.7173 -0.0000
0.9096 0.9901 1.8023 0.0000 -0.0000 1.0000
0.9096 0.9901 -1.2674 -0.6968 -0.7173 -0.0000
0.7372 1.1543 -1.2674 0.5125 0.8587 0.0000
0.7372 1.1543 1.8023 0.5617 0.8274 -0.0000
0.7235 1.1329 1.8023 0.0000 -0.0000 1.0000
0.7235 1.1329 -1.2674 -0.5617 -0.8274 -0.0000
0.5253 1.2646 -1.2674 0.3556 0.9346 0.0000
0.5253 1.2646 1.8023 0.4095 0.9123 -0.0000
0.5155 1.2411 1.8023 0.0000 0.0000 1.0000
0.5155 1.2411 -1.2674 -0.4095 -0.9123 -0.0000
0.2974 1.3364 -1.2674 0.3007 0.9537 0.0000
0.2974 1.3364 1.8023 0.3007 0.9537 0.0000
0.2919 1.3116 1.8023 0.0000 0.0000 1.0000
0.2919 1.3116 -1.2674 -0.3007 -0.9537 0.0000
1.2053 0.6253 0.2674 0.4617 -0.8870 0.0000
0.2946 1.3240 0.2674 -0.9763 0.2164 0.0000
1.2165 0.6312 -1.2674 0.0000 -0.0000 -1.0000
1.2165 0.6312 -1.2674 0.4617 -0.8870 0.0000
1.2165 0.6312 1.8023 0.0000 0.0000 1.0000
1.2165 0.6312 1.8023 0.4617 -0.8870 0.0000
1.1940 0.6194 1.8023 -0.8434 -0.5373 0.0000
1.1940 0.6194 1.8023 0.4617 -0.8870 0.0000
1.1940 0.6194 -1.2674 0.0000 0.0000 -1.0000
1.1940 0.6194 -1.2674 0.4617 -0.8871 0.0000
1.0882 0.8327 -1.2674 0.0000 0.0000 -1.0000
1.0882 0.8327 1.8023 0.0000 0.0000 1.0000
1.0680 0.8172 1.8023 -0.7753 -0.6316 0.0000
1.0680 0.8172 -1.2674 0.0000 0.0000 -1.0000
0.9267 1.0088 -1.2674 0.0000 -0.0000 -1.0000
0.9267 1.0088 1.8023 0.0000 -0.0000 1.0000
0.9096 0.9901 1.8023 -0.6538 -0.7567 0.0000
0.9096 0.9901 -1.2674 0.0000 -0.0000 -1.0000
0.7372 1.1543 -1.2674 0.0000 0.0000 -1.0000
0.7372 1.1543 1.8023 0.0000 -0.0000 1.0000
0.7235 1.1329 1.8023 -0.5125 -0.8587 0.0000
0.7235 1.1329 -1.2674 0.0000 0.0000 -1.0000
0.5253 1.2646 -1.2674 0.0000 -0.0000 -1.0000
0.5253 1.2646 1.8023 0.0000 0.0000 1.0000
0.5155 1.2411 1.8023 -0.3556 -0.9346 0.0000
0.5155 1.2411 -1.2674 0.0000 -0.0000 -1.0000
0.2974 1.3364 -1.2674 0.0000 0.0000 -1.0000
0.2974 1.3364 -1.2674 -0.9763 0.2164 0.0000
0.2974 1.3364 1.8023 0.0000 0.0000 1.0000
0.2974 1.3364 1.8023 -0.9763 0.2164 0.0000
0.2919 1.3116 1.8023 -0.3007 -0.9537 0.0000
0.2919 1.3116 1.8023 -0.9763 0.2163 0.0000
0.2919 1.3116 -1.2674 0.0000 0.0000 -1.0000
0.2919 1.3116 -1.2674 -0.9763 0.2163 0.0000
0 4 5
0 5 1
28 35 6
28 6 2
30 36 7
30 7 3
32 37 34
32 34 26
4 8 9
4 9 5
35 39 10
35 10 6
36 40 11
36 11 7
37 41 38
37 38 34
8 12 13
8 13 9
39 43 14
39 14 10
40 44 15
40 15 11
41 45 42
41 42 38
12 16 17
12 17 13
43 47 18
43 18 14
44 48 19
44 19 15
45 49 46
45 46 42
16 20 21
16 21 17
47 52 22
47 22 18
48 54 23
48 23 19
49 56 50
49 50 46
24 27 29
24 29 31
24 31 33
24 33 27
25 53 51
25 55 53
25 57 55
25 51 57
LABEL Group_7
MATERIAL 6
TEXTURE 0
FLAG 0
GEOM 24 12
1.2491 0.7600 1.2736 0.0000 0.0000 -1.0000
0.4025 1.4959 1.2736 0.0000 0.0000 -1.0000
1.4820 1.0278 1.2736 0.0000 0.0000 -1.0000
0.6353 1.7638 1.2736 0.0000 0.0000 -1.0000
1.2491 0.7600 1.6317 0.0000 -0.0000 1.0000
0.4025 1.4959 1.6317 0.0000 -0.0000 1.0000
1.4820 1.0278 1.6317 0.0000 0.0000 1.0000
0.6353 1.7638 1.6317 0.0000 -0.0000 1.0000
1.2491 0.7600 1.2736 -0.6561 -0.7547 0.0000
1.2491 0.7600 1.2736 0.7547 -0.6561 0.0000
0.4025 1.4959 1.2736 -0.6561 -0.7547 0.0000
0.4025 1.4959 1.2736 -0.7547 0.6560 0.0000
1.4820 1.0278 1.2736 0.6561 0.7547 0.0000
1.4820 1.0278 1.2736 0.7547 -0.6561 0.0000
0.6353 1.7638 1.2736 -0.7547 0.6560 0.0000
0.6353 1.7638 1.2736 0.6561 0.7547 0.0000
1.2491 0.7600 1.6317 -0.6561 -0.7547 0.0000
1.2491 0.7600 1.6317 0.7547 -0.6561 0.0000
0.4025 1.4959 1.6317 -0.6561 -0.7547 0.0000
0.4025 1.4959 1.6317 -0.7547 0.6560 0.0000
1.4820 1.0278 1.6317 0.6561 0.7547 0.0000
1.4820 1.0278 1.6317 0.7547 -0.6561 0.0000
0.6353 1.7638 1.6317 -0.7547 0.6560 0.0000
0.6353 1.7638 1.6317 0.6561 0.7547 0.0000
0 3 2
3 0 1
4 7 5
7 4 6
8 18 10
18 8 16
11 22 14
22 11 19
15 20 12
20 15 23
13 17 9
17 13 21
MATERIALS 6
default material_SM-SIMBAY
Mtl #1_SM-SIMBAY.001
Mtl #0_SM-SIMBAY
Mtl #3_SM-SIMBAY
Mtl #2_SM-SIMBAY
Mtl #7_SM-SIMBAY
MATERIAL default material_SM-SIMBAY
0.800 0.690 0.306 1.000
0.800 0.690 0.306 1.000
0.900 0.900 0.900 1.000 83.000
0.000 0.000 0.000 1.000
MATERIAL Mtl #1_SM-SIMBAY.001
0.710 0.710 0.710 1.000
0.710 0.710 0.710 1.000
0.900 0.900 0.900 1.000 21.000
0.000 0.000 0.000 1.000
MATERIAL Mtl #0_SM-SIMBAY
1.000 1.000 1.000 1.000
1.000 1.000 1.000 1.000
0.900 0.900 0.900 1.000 0.000
0.000 0.000 0.000 1.000
MATERIAL Mtl #3_SM-SIMBAY
0.294 0.294 0.294 1.000
0.294 0.294 0.294 1.000
0.900 0.900 0.900 1.000 13.000
0.000 0.000 0.000 1.000
MATERIAL Mtl #2_SM-SIMBAY
0.725 0.725 0.725 1.000
0.725 0.725 0.725 1.000
0.900 0.900 0.900 1.000 296.000
0.000 0.000 0.000 1.000
MATERIAL Mtl #7_SM-SIMBAY
0.545 0.514 0.388 1.000
0.545 0.514 0.388 1.000
0.900 0.900 0.900 1.000 18.000
0.000 0.000 0.000 1.000
TEXTURES 0
